<svg id="Calque_1" data-name="Calque 1" xmlns="http://www.w3.org/2000/svg" viewBox="0 0 150 149.99"><defs><style>.cls-1{fill:#ffd932;}.cls-2{fill:none;}.cls-3{fill:#29362e;}</style></defs><title>anon</title><path class="cls-1" d="M150,75a75.09,75.09,0,0,1-41.12,66.92c-1.21.62-2.44,1.2-3.69,1.75a75.15,75.15,0,0,1-59.14.53c-1.27-.53-2.54-1.1-3.78-1.7A75,75,0,1,1,150,75Z" transform="translate(0 0)"/><path class="cls-2" d="M150,75a75.09,75.09,0,0,1-41.12,66.92c-1.21.62-2.44,1.2-3.69,1.75a75.15,75.15,0,0,1-59.14.53c-1.27-.53-2.54-1.1-3.78-1.7A75,75,0,1,1,150,75Z" transform="translate(0 0)"/><path class="cls-3" d="M108.88,117.91v24c-1.21.62-2.44,1.2-3.69,1.75a75.15,75.15,0,0,1-59.14.53c-1.27-.53-2.54-1.1-3.78-1.7V119.59l19.79-9.49,1.12-.54H89.41l1.06.45Z" transform="translate(0 0)"/><path class="cls-3" d="M86.86,115.63l-6.4,5.15a6.71,6.71,0,0,1-8.42,0l-6.4-5.15a6.73,6.73,0,0,1-2.45-6.07l1.36-10.74.33-2.57a6.59,6.59,0,0,1,1.82-3.82,6.72,6.72,0,0,1,4.83-2.06H81a6.71,6.71,0,0,1,6.66,5.88l.82,6.49.86,6.79A6.71,6.71,0,0,1,86.86,115.63Z" transform="translate(0 0)"/><path class="cls-3" d="M76.25,123.3a7.74,7.74,0,0,1-4.88-1.71L65,116.44a7.81,7.81,0,0,1-2.84-7l1.71-13.27a7.82,7.82,0,0,1,7.73-6.83H81a7.81,7.81,0,0,1,7.74,6.83l1.67,13.27a7.76,7.76,0,0,1-2.88,7h0l-6.41,5.15A7.72,7.72,0,0,1,76.25,123.3ZM71.53,91.45a5.65,5.65,0,0,0-4.06,1.73A5.55,5.55,0,0,0,66,96.38l-1.68,13.28a5.61,5.61,0,0,0,2.06,5.1l6.39,5.15a5.67,5.67,0,0,0,7.07,0l6.39-5.15a5.61,5.61,0,0,0,2.06-5.1L86.56,96.38A5.63,5.63,0,0,0,81,91.45Zm15.33,24.18Z" transform="translate(0 0)"/><path class="cls-3" d="M96.17,63V57.62A20.53,20.53,0,0,0,75.68,37.14h0A20.54,20.54,0,0,0,55.1,57.63v5.31a4.34,4.34,0,0,0-3.88,4.24v2a5.78,5.78,0,0,0,4,5.41l1.44,9.66c0,6.29,4,12.06,9.54,15.43,3,1.86,4.37,2.84,8,2.84H77c4.19,0,6-1.29,9.31-3.72,4.77-3.48,8.22-8.78,8.22-14.55L96,74.64a5.78,5.78,0,0,0,4-5.41v-2A4.33,4.33,0,0,0,96.17,63Z" transform="translate(0 0)"/><path class="cls-3" d="M88.45,102.73a16,16,0,0,1-2.4.15H83.17a18.41,18.41,0,0,1-7.07-1.39h1A18.27,18.27,0,0,0,87.86,98Z" transform="translate(0 0)"/><path class="cls-3" d="M46.05,144.2c-1.27-.53-2.54-1.1-3.78-1.7a75,75,0,0,1-14.54-9.28l14.54-13.63Z" transform="translate(0 0)"/><path class="cls-3" d="M124,131.74a74.9,74.9,0,0,1-15.16,10.18c-1.21.62-2.44,1.2-3.69,1.75l3.69-24.09.27-1.79Z" transform="translate(0 0)"/></svg>